HIERARCHY
ROOT hip
{
	OFFSET 0.000000 0.000000 0.000000 
	CHANNELS 6 Xposition Yposition Zposition Xrotation Zrotation Yrotation
	JOINT abdomen
	{
		OFFSET 0.000000 3.402643 0.000000 
		CHANNELS 3 Xrotation Zrotation Yrotation
		JOINT chest
		{
			OFFSET 0.000000 8.438565 -0.680529 
			CHANNELS 3 Xrotation Zrotation Yrotation
			JOINT neck
			{
				OFFSET 0.000000 10.207942 -0.272212 
				CHANNELS 3 Xrotation Zrotation Yrotation
				JOINT head
				{
					OFFSET 0.000000 3.130431 0.000000 
					CHANNELS 3 Xrotation Zrotation Yrotation
					End Site
					{
						OFFSET 0.000000 3.130435 0.000000 
					}
				}
			}
			JOINT lCollar
			{
				OFFSET 3.470700 6.669187 -0.816635 
				CHANNELS 3 Yrotation Zrotation Xrotation
				JOINT lShldr
				{
					OFFSET 3.198488 0.000000 0.000000 
					CHANNELS 3 Zrotation Yrotation Xrotation
					JOINT lForeArm
					{
						OFFSET 10.139888 0.000000 0.000000 
						CHANNELS 3 Yrotation Zrotation Xrotation
						JOINT lHand
						{
							OFFSET 8.370511 0.000000 0.000000 
							CHANNELS 3 Zrotation Yrotation Xrotation
							End Site
							{
								OFFSET 4.083176 0.000000 0.000000 
							}
						}
					}
				}
			}
			JOINT rCollar
			{
				OFFSET -3.470700 6.669187 -0.816635 
				CHANNELS 3 Yrotation Zrotation Xrotation
				JOINT rShldr
				{
					OFFSET -3.198488 0.000000 0.000000 
					CHANNELS 3 Zrotation Yrotation Xrotation
					JOINT rForeArm
					{
						OFFSET -10.139888 0.000000 0.000000 
						CHANNELS 3 Yrotation Zrotation Xrotation
						JOINT rHand
						{
							OFFSET -8.370511 0.000000 0.000000 
							CHANNELS 3 Zrotation Yrotation Xrotation
							End Site
							{
								OFFSET -4.083176 0.000000 0.000000 
							}
						}
					}
				}
			}
		}
	}
	JOINT lThigh
	{
		OFFSET 5.308129 -1.633274 1.361059 
		CHANNELS 3 Xrotation Zrotation Yrotation
		JOINT lShin
		{
			OFFSET -2.041588 -20.007561 0.000000 
			CHANNELS 3 Xrotation Zrotation Yrotation
			JOINT lFoot
			{
				OFFSET 0.000000 -19.190928 -1.224953 
				CHANNELS 3 Xrotation Yrotation Zrotation
				End Site
				{
					OFFSET 0.000000 -2.449906 4.627600 
				}
			}
		}
	}
	JOINT rThigh
	{
		OFFSET -5.308129 -1.633274 1.361059 
		CHANNELS 3 Xrotation Zrotation Yrotation
		JOINT rShin
		{
			OFFSET 2.041588 -20.007561 0.000000 
			CHANNELS 3 Xrotation Zrotation Yrotation
			JOINT rFoot
			{
				OFFSET 0.000000 -19.190928 -1.224953 
				CHANNELS 3 Xrotation Yrotation Zrotation
				End Site
				{
					OFFSET 0.000000 -2.449906 4.627600 
				}
			}
		}
	}
}
MOTION
Frames: 18
Frame Time: 0.033333
-37.170876 49.857616 -38.322102 -8.925781 -6.259767 -27.989347 15.374428 -8.892500 -6.228419 5.312501 11.337891 3.869108 36.096966 -12.556713 -9.016054 -25.869141 0.781250 41.084053 2.000000 -2.000000 0.000000 -67.041016 26.230467 16.669920 -52.108177 8.525471 -7.623938 2.395830 -5.441020 -3.573447 -2.000000 2.000000 0.000000 62.001949 -36.181637 25.175781 64.831131 -2.315191 -1.784855 -3.149268 0.547005 -3.519779 18.919641 17.074308 0.970630 -6.921030 -7.284557 27.540089 -2.478164 -1.129153 -0.435271 21.360947 -10.621254 -0.623101 -3.697033 11.785810 -26.269724 -13.662394 1.837173 -5.845608 
-37.146202 49.848335 -38.360905 -8.662109 -6.132701 -27.783819 15.374428 -8.892500 -6.228419 5.068360 11.464845 3.693347 36.182266 -12.891053 -9.272395 -26.259768 1.386719 41.171883 2.000000 -2.000000 0.000000 -66.992188 26.162107 16.660154 -52.270760 8.406286 -7.480422 2.395830 -5.441020 -3.573447 -2.000000 2.000000 0.000000 60.283203 -35.390625 25.878906 63.978470 0.364611 -0.278329 -3.168550 0.449304 -3.520943 18.387918 17.186268 0.961382 -6.737007 -7.324063 27.133633 -2.476574 -1.121675 -0.463854 21.007740 -10.581165 -0.615189 -3.744109 11.793947 -26.598143 -13.643103 1.854002 -5.847723 
-37.159359 49.847107 -38.376968 -8.652344 -6.171875 -27.540110 15.374428 -8.892500 -6.228419 5.078125 11.484376 3.292960 36.455212 -13.249422 -9.623927 -26.582035 1.884766 41.416019 2.000000 -2.000000 0.000000 -67.050781 26.269533 16.508228 -52.302925 8.555260 -7.615826 2.395815 -5.431254 -3.573446 -2.000000 2.000000 0.000000 60.087894 -35.205078 26.166245 63.928871 0.440870 -0.244488 -3.168550 0.449304 -3.520943 18.274956 17.308149 0.952070 -6.662548 -7.361107 27.089855 -2.380977 -1.127594 -0.433527 21.051258 -10.378450 -0.613529 -3.833165 11.629201 -26.730280 -13.739920 1.846338 -5.863293 
-37.188850 49.858475 -38.341980 -8.769531 -6.230469 -27.569418 15.374428 -8.892500 -6.228419 5.000000 11.503907 2.990229 36.418827 -13.896743 -10.058753 -26.582035 2.480469 41.826172 2.000000 -2.000000 0.000000 -67.119141 26.552732 16.777344 -52.253330 8.953494 -8.017778 2.395815 -5.431254 -3.573446 -2.000000 2.000000 0.000000 60.019535 -35.146484 26.879143 63.866810 0.006834 -0.514602 -3.158820 0.459092 -3.520365 18.519285 17.279802 0.976036 -6.729428 -7.342596 27.213049 -2.476184 -1.104929 -0.446558 21.189709 -10.339972 -0.616153 -3.647440 11.621683 -26.538403 -13.809644 1.854124 -5.837309 
-37.175327 49.849285 -38.312096 -8.837891 -6.386719 -27.949217 15.374428 -8.892500 -6.228419 5.244143 11.718751 3.039093 36.022911 -14.807876 -10.540981 -26.357424 3.027344 42.441410 2.000000 -2.000000 0.000000 -67.431641 26.650393 16.386717 -52.379112 9.013071 -8.001541 2.395815 -5.431254 -3.573446 -2.000000 2.000000 0.000000 59.052738 -34.785156 27.502321 63.783920 0.968312 0.099765 -3.158797 0.449327 -3.520365 18.930099 17.212460 0.944301 -6.981862 -7.215344 27.619360 -2.476163 -1.129491 -0.445955 21.138062 -10.426324 -0.627755 -3.215486 11.697117 -25.954855 -13.905473 1.813854 -5.859024 
-37.104820 49.827347 -38.357841 -8.496095 -6.318359 -28.447268 15.374428 -8.892500 -6.228419 5.126953 11.992188 2.812500 36.051285 -15.676681 -11.140528 -26.298828 3.261719 43.164616 2.000000 -2.000000 0.000000 -67.871101 26.855467 15.761717 -52.603897 9.243313 -8.082767 2.395786 -5.411723 -3.573444 -2.000000 2.000000 0.000000 59.521484 -34.873047 27.621367 64.330681 -0.469100 -0.738209 -3.149179 0.507943 -3.519783 18.588680 17.173422 0.936355 -6.857651 -7.213407 28.104017 -2.482410 -1.117418 -0.441214 20.282991 -10.555945 -0.611403 -2.445958 11.793658 -25.439302 -14.317074 1.844027 -5.844328 
-37.005085 49.832188 -38.428547 -8.193359 -5.986328 -28.868208 15.374428 -8.892500 -6.228419 4.882813 12.021485 2.755940 36.505997 -16.496264 -11.878496 -26.845705 3.525390 43.681641 2.000000 -2.000000 0.000000 -67.910156 26.914063 16.093750 -52.843163 9.552184 -8.332909 2.405559 -5.392178 -3.583784 -2.000000 2.000000 0.000000 58.769531 -34.335941 28.574221 64.133446 -0.249477 -0.647045 -3.158864 0.478624 -3.520363 17.855116 16.908783 0.934932 -6.329440 -7.381928 28.226336 -2.671652 -1.097163 -0.456133 19.280333 -10.854908 -0.662097 -1.703769 11.744230 -24.952515 -14.804903 1.856025 -5.861609 
-36.899044 49.845428 -38.486053 -7.919922 -5.546875 -28.749998 15.374428 -8.892500 -6.228419 4.912112 12.158203 3.127056 36.618465 -17.655434 -12.709379 -27.724611 4.384766 43.935551 2.000000 -2.000000 0.000000 -67.607422 26.406248 17.001953 -54.053871 8.979921 -7.541773 2.395682 -5.343364 -3.573436 -2.000000 2.000000 0.000000 58.037109 -33.994141 28.720703 64.350266 0.454077 -0.302386 -3.168596 0.468836 -3.520941 16.777119 16.650059 0.889560 -5.439285 -7.529203 27.799114 -3.098161 -1.115407 -0.457911 18.540428 -11.061129 -0.661385 -1.285697 11.560490 -24.976521 -15.069058 1.854146 -5.852451 
-36.732525 49.864967 -38.546848 -7.763673 -4.990234 -28.466797 15.374428 -8.892500 -6.228419 5.419923 12.207031 2.795033 36.372089 -18.766365 -13.350186 -28.388674 4.980468 44.189457 2.000000 -2.000000 0.000000 -67.656258 25.585936 15.976563 -54.489422 7.559383 -6.361552 2.395667 -5.333599 -3.573435 -2.000000 2.000000 0.000000 57.050785 -34.013672 28.627352 66.254440 0.909243 0.106048 -3.139714 0.634918 -3.528961 15.406631 16.295000 0.890507 -4.130056 -7.811906 27.059107 -3.636583 -1.087275 -0.452319 17.867260 -11.432743 -0.697499 -0.950375 11.448753 -25.394922 -15.078919 1.832725 -5.841969 
-36.584606 49.933372 -38.569248 -8.193359 -4.443359 -28.360130 15.374428 -8.892500 -6.228419 6.074219 11.699220 2.160183 36.151150 -19.392662 -13.647294 -29.296877 4.775391 44.648438 2.000000 -2.000000 0.000000 -67.656258 25.390623 16.162111 -53.266144 8.263282 -7.413777 2.405544 -5.382411 -3.583782 -2.000000 2.000000 0.000000 55.400391 -34.687500 30.111633 69.659149 1.150919 0.648666 -3.111086 0.918187 -3.536968 14.635674 15.436120 0.832259 -2.698162 -7.885023 26.565939 -4.242086 -1.113147 -0.448810 17.844124 -12.161912 -0.762618 -0.802872 11.322864 -25.547709 -14.923403 1.874494 -5.841107 
-36.432186 49.990055 -38.597141 -8.476563 -4.042969 -29.052738 15.374428 -8.892500 -6.228419 7.011721 11.132813 3.117120 36.348614 -20.029324 -14.156584 -30.517578 5.009765 45.234375 2.000000 -2.000000 0.000000 -67.460938 25.107424 17.158203 -53.232277 8.475639 -7.640706 2.405544 -5.382411 -3.583782 -2.000000 2.000000 0.000000 54.531250 -36.250004 29.945396 73.447983 1.214242 1.063398 -3.101963 1.201411 -3.536361 14.159840 14.667664 0.790931 -1.625521 -7.893312 26.897438 -4.757094 -1.120425 -0.436619 17.373123 -12.957895 -0.812930 -0.347536 11.161781 -24.859213 -14.854381 1.846785 -5.844671 
-36.254963 49.976402 -38.605381 -7.949218 -3.398438 -29.600189 15.374428 -8.892500 -6.228419 6.748048 10.673829 3.468606 36.544891 -20.732166 -14.712349 -31.328127 5.791016 45.996098 2.000000 -2.000000 0.000000 -67.333984 25.419924 18.564455 -53.348732 9.200549 -8.148817 2.405529 -5.372645 -3.583781 -2.000000 2.000000 0.000000 52.558594 -39.277344 32.763668 79.567177 0.759491 1.633180 -3.083482 1.670203 -3.554681 12.789317 14.213968 0.738597 -0.465259 -8.130072 26.910412 -5.380368 -1.110776 -0.450044 16.296995 -13.523499 -0.804333 -0.229249 10.951316 -24.519344 -14.552037 1.844844 -5.833694 
-36.132229 49.980087 -38.547733 -7.841796 -3.037110 -29.521999 15.374428 -8.892500 -6.228419 6.865235 9.912109 2.823947 36.290817 -21.398088 -15.013690 -31.523441 6.582031 46.894531 2.000000 -2.000000 0.000000 -66.914063 26.269533 20.761719 -53.274654 10.717660 -9.371160 2.395712 -5.362895 -3.573438 -2.000000 2.000000 0.000000 49.716797 -42.626953 37.177738 86.257614 0.730351 2.443481 -3.104151 2.177971 -3.565532 11.988825 14.008955 0.728994 0.539827 -8.637562 26.450024 -6.029153 -1.118776 -0.429128 16.353397 -13.922171 -0.832755 -0.930659 10.911093 -24.847544 -14.092515 1.845447 -5.842773 
-35.939045 49.980133 -38.483692 -7.705078 -3.007812 -29.941921 15.374428 -8.892500 -6.228419 7.451173 9.267578 2.355088 35.986607 -22.416161 -15.497422 -31.982426 7.792969 47.968754 2.000000 -2.000000 0.000000 -66.552734 27.080078 22.441404 -53.206375 12.010525 -10.415233 2.395697 -5.353130 -3.573436 -2.000000 2.000000 0.000000 46.162106 -46.074219 41.923832 92.928513 1.344305 3.292747 -3.115065 2.685760 -3.575795 11.628869 13.756930 0.716707 1.039038 -8.722620 26.772436 -6.447760 -1.108917 -0.440236 16.070246 -14.253390 -0.867729 -0.874478 10.953108 -24.431517 -14.043208 1.835770 -5.847775 
-35.675476 49.930321 -38.425461 -6.943359 -2.490235 -30.791019 15.374428 -8.892500 -6.228419 7.421875 8.330079 1.855469 36.089912 -23.486923 -16.210197 -33.232426 9.394530 49.072269 2.000000 -2.000000 0.000000 -66.347656 27.626953 22.539063 -53.444065 11.972264 -10.219702 2.395682 -5.343364 -3.573436 -2.000000 2.000000 0.000000 42.626953 -49.189453 45.256279 98.566406 3.664491 3.913075 -3.125814 3.115425 -3.586594 10.603750 13.395767 0.716661 1.367159 -9.022843 27.630711 -6.756619 -1.112087 -0.413017 14.662112 -14.729957 -0.884358 -0.534752 10.702062 -23.768393 -14.004725 1.847998 -5.841137 
-35.377754 49.941868 -38.339359 -6.376953 -2.001953 -31.279299 15.374428 -8.892500 -6.228419 7.851561 7.031250 1.054687 37.138645 -23.873451 -17.050005 -35.107426 11.025391 49.824223 2.000000 -2.000000 0.000000 -65.859375 28.339846 23.310547 -53.456543 12.121453 -10.354878 2.395697 -5.353130 -3.573436 -2.000000 2.000000 0.000000 37.792969 -51.816402 50.822403 103.038086 4.610499 4.284193 -3.136327 3.437667 -3.596931 9.891517 12.936790 0.682239 1.351306 -9.279462 28.107653 -6.934062 -1.106004 -0.444523 13.441426 -15.266571 -0.911804 0.043533 10.561180 -23.359222 -13.682157 1.853408 -5.848139 
-35.034542 49.963779 -38.203270 -6.152344 -1.738281 -31.377251 15.374428 -8.892500 -6.228419 8.681642 5.595703 0.118140 38.751026 -23.083914 -17.478718 -37.021484 12.060547 49.767670 2.000000 -2.000000 0.000000 -65.029297 29.287109 25.278212 -53.856514 13.112882 -11.012444 2.395653 -5.323833 -3.573433 -2.000000 2.000000 0.000000 32.421875 -55.146484 57.851559 106.837204 2.265660 5.032135 -3.136995 3.730635 -3.606687 9.589218 12.097781 0.602683 1.155000 -8.812547 28.122572 -6.848151 -1.091747 -0.426411 12.181988 -15.891038 -0.970170 1.692060 10.543429 -23.248476 -13.602942 1.819970 -5.854769 
-34.688869 49.943123 -38.005733 -6.035156 -2.001953 -31.367186 15.374428 -8.892500 -6.228419 9.453126 4.521484 -0.673058 39.546104 -20.591650 -16.209204 -38.027348 11.533202 48.251957 2.000000 -2.000000 0.000000 -64.003906 30.322266 27.587891 -54.180027 13.742403 -11.307961 2.395623 -5.304301 -3.573431 -2.000000 2.000000 0.000000 25.966797 -58.476570 64.765625 109.276054 -1.125624 6.086316 -3.147228 3.925925 -3.617021 9.899615 11.793467 0.597294 0.588413 -8.618831 28.168755 -6.751698 -1.127719 -0.452114 10.737648 -16.281513 -0.992090 4.493816 10.622875 -22.681686 -14.052428 1.823488 -5.854536 
